{
  "accessors": [
    {
      "bufferView": 0,
      "componentType": 5126,
      "count": 88853,
      "max": [
        110.980903625488,
        306.095306396484,
        258.291412353516
      ],
      "min": [
        -110.795196533203,
        -306.313293457031,
        -258.236389160156
      ],
      "type": "VEC3"
    },
    {
      "bufferView": 1,
      "componentType": 5126,
      "count": 88853,
      "type": "VEC3"
    },
    {
      "bufferView": 2,
      "componentType": 5126,
      "count": 88853,
      "type": "VEC2"
    },
    {
      "bufferView": 3,
      "componentType": 5125,
      "count": 450000,
      "type": "SCALAR"
    }
  ],
  "asset": {
    "generator": "MeshSmith mesh conversion tool",
    "version": "2.0"
  },
  "bufferViews": [
    {
      "buffer": 0,
      "byteLength": 1066236,
      "target": 34962
    },
    {
      "buffer": 0,
      "byteLength": 1066236,
      "byteOffset": 1066236,
      "target": 34962
    },
    {
      "buffer": 0,
      "byteLength": 710824,
      "byteOffset": 2132472,
      "target": 34962
    },
    {
      "buffer": 0,
      "byteLength": 1800000,
      "byteOffset": 2843296,
      "target": 34963
    }
  ],
  "buffers": [
    {
      "byteLength": 4643296,
      "uri": "andrew-jackson-zinc-sculpture-150k-4096-web.bin"
    }
  ],
  "images": [
    {
      "uri": "andrew-jackson-zinc-sculpture-150k-4096-diffuse.jpg"
    },
    {
      "uri": "andrew-jackson-zinc-sculpture-150k-4096-occlusion.jpg"
    },
    {
      "uri": "andrew-jackson-zinc-sculpture-150k-4096-normals.jpg"
    }
  ],
  "materials": [
    {
      "name": "default",
      "normalTexture": {
        "index": 2
      },
      "occlusionTexture": {
        "index": 1
      },
      "pbrMetallicRoughness": {
        "baseColorTexture": {
          "index": 0
        },
        "metallicFactor": 0.100000001490116,
        "roughnessFactor": 0.800000011920929
      }
    }
  ],
  "meshes": [
    {
      "primitives": [
        {
          "attributes": {
            "NORMAL": 1,
            "POSITION": 0,
            "TEXCOORD_0": 2
          },
          "indices": 3,
          "material": 0,
          "mode": 4
        }
      ]
    }
  ],
  "nodes": [
    {
      "mesh": 0
    }
  ],
  "scene": 0,
  "scenes": [
    {
      "nodes": [
        0
      ]
    }
  ],
  "textures": [
    {
      "source": 0
    },
    {
      "source": 1
    },
    {
      "source": 2
    }
  ]
}