{
  "accessors": [
    {
      "bufferView": 0,
      "componentType": 5126,
      "count": 85755,
      "max": [
        84.7563018798828,
        238.28450012207,
        70.7251205444336
      ],
      "min": [
        -84.7967529296875,
        -238.280303955078,
        -70.732551574707
      ],
      "type": "VEC3"
    },
    {
      "bufferView": 1,
      "componentType": 5126,
      "count": 85755,
      "type": "VEC3"
    },
    {
      "bufferView": 2,
      "componentType": 5126,
      "count": 85755,
      "type": "VEC2"
    },
    {
      "bufferView": 3,
      "componentType": 5125,
      "count": 450000,
      "type": "SCALAR"
    }
  ],
  "asset": {
    "generator": "MeshSmith mesh conversion tool",
    "version": "2.0"
  },
  "bufferViews": [
    {
      "buffer": 0,
      "byteLength": 1029060,
      "target": 34962
    },
    {
      "buffer": 0,
      "byteLength": 1029060,
      "byteOffset": 1029060,
      "target": 34962
    },
    {
      "buffer": 0,
      "byteLength": 686040,
      "byteOffset": 2058120,
      "target": 34962
    },
    {
      "buffer": 0,
      "byteLength": 1800000,
      "byteOffset": 2744160,
      "target": 34963
    }
  ],
  "buffers": [
    {
      "byteLength": 4544160,
      "uri": "james-garfield-bronze-sculpture-150k-4096-web.bin"
    }
  ],
  "images": [
    {
      "uri": "james-garfield-bronze-sculpture-150k-4096-diffuse.jpg"
    },
    {
      "uri": "james-garfield-bronze-sculpture-150k-4096-occlusion.jpg"
    },
    {
      "uri": "james-garfield-bronze-sculpture-150k-4096-normals.jpg"
    }
  ],
  "materials": [
    {
      "name": "default",
      "normalTexture": {
        "index": 2
      },
      "occlusionTexture": {
        "index": 1
      },
      "pbrMetallicRoughness": {
        "baseColorTexture": {
          "index": 0
        },
        "metallicFactor": 0.100000001490116,
        "roughnessFactor": 0.800000011920929
      }
    }
  ],
  "meshes": [
    {
      "primitives": [
        {
          "attributes": {
            "NORMAL": 1,
            "POSITION": 0,
            "TEXCOORD_0": 2
          },
          "indices": 3,
          "material": 0,
          "mode": 4
        }
      ]
    }
  ],
  "nodes": [
    {
      "mesh": 0
    }
  ],
  "scene": 0,
  "scenes": [
    {
      "nodes": [
        0
      ]
    }
  ],
  "textures": [
    {
      "source": 0
    },
    {
      "source": 1
    },
    {
      "source": 2
    }
  ]
}