{
  "accessors": [
    {
      "bufferView": 0,
      "componentType": 5126,
      "count": 86202,
      "max": [
        111.318000793457,
        138.027603149414,
        66.5052108764648
      ],
      "min": [
        -111.304901123047,
        -138.046203613281,
        -66.4871978759766
      ],
      "type": "VEC3"
    },
    {
      "bufferView": 1,
      "componentType": 5126,
      "count": 86202,
      "type": "VEC3"
    },
    {
      "bufferView": 2,
      "componentType": 5126,
      "count": 86202,
      "type": "VEC2"
    },
    {
      "bufferView": 3,
      "componentType": 5125,
      "count": 450000,
      "type": "SCALAR"
    }
  ],
  "asset": {
    "generator": "MeshSmith mesh conversion tool",
    "version": "2.0"
  },
  "bufferViews": [
    {
      "buffer": 0,
      "byteLength": 1034424,
      "target": 34962
    },
    {
      "buffer": 0,
      "byteLength": 1034424,
      "byteOffset": 1034424,
      "target": 34962
    },
    {
      "buffer": 0,
      "byteLength": 689616,
      "byteOffset": 2068848,
      "target": 34962
    },
    {
      "buffer": 0,
      "byteLength": 1800000,
      "byteOffset": 2758464,
      "target": 34963
    }
  ],
  "buffers": [
    {
      "byteLength": 4558464,
      "uri": "rutherford-b-hayes-plaster-150k-4096.bin"
    }
  ],
  "images": [
    {
      "uri": "rutherford-b-hayes-plaster-150k-4096-diffuse.jpg"
    },
    {
      "uri": "rutherford-b-hayes-plaster-150k-4096-occlusion.jpg"
    },
    {
      "uri": "rutherford-b-hayes-plaster-150k-4096-normals.jpg"
    }
  ],
  "materials": [
    {
      "name": "default",
      "normalTexture": {
        "index": 2
      },
      "occlusionTexture": {
        "index": 1
      },
      "pbrMetallicRoughness": {
        "baseColorTexture": {
          "index": 0
        },
        "metallicFactor": 0.100000001490116,
        "roughnessFactor": 0.800000011920929
      }
    }
  ],
  "meshes": [
    {
      "primitives": [
        {
          "attributes": {
            "NORMAL": 1,
            "POSITION": 0,
            "TEXCOORD_0": 2
          },
          "indices": 3,
          "material": 0,
          "mode": 4
        }
      ]
    }
  ],
  "nodes": [
    {
      "mesh": 0
    }
  ],
  "scene": 0,
  "scenes": [
    {
      "nodes": [
        0
      ]
    }
  ],
  "textures": [
    {
      "source": 0
    },
    {
      "source": 1
    },
    {
      "source": 2
    }
  ]
}